<?xml version="1.0" encoding="utf-8"?>
<svg xmlns="http://www.w3.org/2000/svg" data-name="1" id="_1" viewBox="0 0 997.79 1000">
  <defs>
    <style>.cls-1{fill:#f99bc6}.cls-3{fill:#f46c9d}.cls-4{fill:#ff87ac}.cls-5,.cls-7{fill:#fff}.cls-6{fill:#8abae7}.cls-10,.cls-18,.cls-21,.cls-22,.cls-23,.cls-24,.cls-26,.cls-27,.cls-30,.cls-31,.cls-7{fill-rule:evenodd}.cls-31,.cls-8{fill:#e8dad8}.cls-10{fill:#11295b}.cls-11{fill:#a89691}.cls-12{fill:#00a9ff}.cls-27{fill:#0060d9}.cls-15{fill:#87eeff}.cls-16{fill:#a8e4ff}.cls-18,.cls-19{fill:#00ddc3}.cls-20{fill:#19c6ff}.cls-21{fill:#ffceb3}.cls-22{fill:#ffa680}.cls-23{fill:#ffbe9f}.cls-24{fill:#f4eeee}.cls-26{fill:#0084ff}.cls-30{fill:#b96d54}</style>
  </defs>
  <g data-name="34" id="_34">
    <ellipse class="cls-1" cx="500.21" cy="864.85" rx="314.74" ry="43.62"/>
    <path d="M629.7 640.66c.36-.73.71-1.47 1.06-2.2 22.5-47 43.14-95.67 75.88-136.21 34.47-42.68 80.59-74.13 120.84-111.43s76.33-84.42 80.39-139.14a139.38 139.38 0 0 0-34.68-102c-34-38-93.59-55.46-143.35-49.3S640.41 133.19 594.59 150c-44.1 16.19-89.25 17.76-134.87 6.5-43-10.61-83.55-29.27-125.77-42.66s-87.85-21.43-130.69-10.16-81.82 45.79-87.1 89.77c-4.84 40.29 18 78.11 39.65 112.44s43.79 72.86 37.41 112.93c-6.36 39.9-39.18 69.66-57.72 105.56-28.88 55.93-20.36 127.25 15.19 179.19 59.05 86.28 176.8 118.45 275.76 98.12C518.82 782.72 589.63 724 629.7 640.66Z" style="fill:#fcbed7"/>
    <ellipse class="cls-1" cx="185.47" cy="892.08" rx="118.98" ry="18.97"/>
    <ellipse class="cls-1" cx="812.32" cy="908.59" rx="118.98" ry="18.97"/>
    <path class="cls-3" d="M899.26 261.71a1.52 1.52 0 0 1-1.07-.45l-17.48-17.48a1.51 1.51 0 0 1 2.13-2.14l17.49 17.49a1.5 1.5 0 0 1 0 2.13 1.48 1.48 0 0 1-1.07.45Z"/>
    <path class="cls-3" d="M881.77 261.71a1.48 1.48 0 0 1-1.06-.45 1.5 1.5 0 0 1 0-2.13l17.48-17.49a1.51 1.51 0 0 1 2.14 2.14l-17.49 17.48a1.48 1.48 0 0 1-1.07.45Z"/>
    <path class="cls-4" d="M184.53 159.47h-16.16a1.5 1.5 0 0 1-1.51-1.51V141.8a1.51 1.51 0 0 1 1.51-1.51h16.16a1.52 1.52 0 0 1 1.47 1.51V158a1.51 1.51 0 0 1-1.47 1.47Zm-14.65-3H183v-13.16h-13.12Z"/>
    <path class="cls-3" d="M767.37 133.25a1.52 1.52 0 0 1-1.51-1.51v-8.36a1.51 1.51 0 1 1 3 0v8.36a1.51 1.51 0 0 1-1.49 1.51ZM767.37 155.24a1.51 1.51 0 0 1-1.51-1.51v-8.36a1.51 1.51 0 0 1 3 0v8.36a1.5 1.5 0 0 1-1.49 1.51ZM782.55 140.06h-8.36a1.51 1.51 0 0 1 0-3h8.36a1.51 1.51 0 0 1 0 3ZM760.55 140.06h-8.36a1.51 1.51 0 0 1 0-3h8.36a1.51 1.51 0 1 1 0 3Z"/>
    <path class="cls-5" d="M774.45 320.18a1.51 1.51 0 0 1-.06-3 79.9 79.9 0 0 0 11.77-1.36 1.51 1.51 0 1 1 .57 3 83.32 83.32 0 0 1-12.21 1.41Zm-12.06-.38h-.16a82.76 82.76 0 0 1-12.1-2.2 1.51 1.51 0 0 1-1.08-1.84 1.5 1.5 0 0 1 1.84-1.08 80.51 80.51 0 0 0 11.66 2.12 1.51 1.51 0 0 1-.16 3Zm35.71-4.15a1.51 1.51 0 0 1-.51-2.94 78.79 78.79 0 0 0 10.86-4.77 1.51 1.51 0 0 1 1.41 2.67 82.35 82.35 0 0 1-11.26 4.95 1.51 1.51 0 0 1-.5.09Zm-59-1.92a1.36 1.36 0 0 1-.59-.12 81.71 81.71 0 0 1-10.92-5.61 1.51 1.51 0 1 1 1.59-2.57 79.15 79.15 0 0 0 10.5 5.45 1.51 1.51 0 0 1-.59 2.9Zm80.28-9.38a1.53 1.53 0 0 1-1.22-.62 1.51 1.51 0 0 1 .32-2.11 80.6 80.6 0 0 0 9-7.73 1.51 1.51 0 1 1 2.13 2.13 82.63 82.63 0 0 1-9.31 8 1.52 1.52 0 0 1-.93.33Zm-100.76-3.26a1.47 1.47 0 0 1-1-.35 83.11 83.11 0 0 1-8.79-8.61 1.51 1.51 0 0 1 2.27-2 80.86 80.86 0 0 0 8.46 8.3 1.51 1.51 0 0 1 .18 2.13 1.49 1.49 0 0 1-1.13.53Zm117.78-13.76a1.52 1.52 0 0 1-.9-.3 1.5 1.5 0 0 1-.31-2.11 80.32 80.32 0 0 0 6.33-10 1.51 1.51 0 0 1 2.67 1.42 83.35 83.35 0 0 1-6.57 10.39 1.51 1.51 0 0 1-1.22.6ZM702.7 283a1.53 1.53 0 0 1-1.27-.69 84.27 84.27 0 0 1-5.89-10.8 1.51 1.51 0 0 1 2.75-1.25 80.56 80.56 0 0 0 5.68 10.4 1.51 1.51 0 0 1-.45 2.09 1.46 1.46 0 0 1-.82.25Zm145-16.94a1.8 1.8 0 0 1-.5-.08 1.51 1.51 0 0 1-.92-1.93 80.79 80.79 0 0 0 3.11-11.43 1.51 1.51 0 1 1 3 .57 82.6 82.6 0 0 1-3.22 11.87 1.51 1.51 0 0 1-1.45 1.02Zm-154.94-5a1.53 1.53 0 0 1-1.46-1.1 82.46 82.46 0 0 1-2.44-12.05 1.51 1.51 0 1 1 3-.38 80.43 80.43 0 0 0 2.36 11.61 1.52 1.52 0 0 1-1.45 1.92Zm159.51-18.62h-.06a1.51 1.51 0 0 1-1.45-1.57c.05-1.13.07-2.29.07-3.45a81.59 81.59 0 0 0-.86-11.81 1.51 1.51 0 1 1 3-.45 83.59 83.59 0 0 1 .91 12.26c0 1.2 0 2.41-.08 3.58a1.51 1.51 0 0 1-1.51 1.45Zm-162.54-5.27a1.51 1.51 0 0 1-1.48-1.54 83.29 83.29 0 0 1 1.16-12.24 1.51 1.51 0 1 1 3 .51 80 80 0 0 0-1.12 11.79 1.51 1.51 0 0 1-1.54 1.49Zm159.07-22.06a1.51 1.51 0 0 1-1.44-1.07 78.4 78.4 0 0 0-4.31-11 1.51 1.51 0 0 1 2.73-1.31 83.29 83.29 0 0 1 4.47 11.47 1.52 1.52 0 0 1-1 1.89 1.61 1.61 0 0 1-.43.03Zm-155-1.67a1.33 1.33 0 0 1-.47-.08 1.5 1.5 0 0 1-1-1.9 81.63 81.63 0 0 1 4.71-11.36 1.51 1.51 0 1 1 2.7 1.36 79.06 79.06 0 0 0-4.54 10.94 1.51 1.51 0 0 1-1.4 1.05Zm144.63-20.06a1.53 1.53 0 0 1-1.26-.66 79.13 79.13 0 0 0-7.35-9.29 1.51 1.51 0 1 1 2.23-2.05 84.45 84.45 0 0 1 7.63 9.65 1.51 1.51 0 0 1-.41 2.09 1.46 1.46 0 0 1-.84.27ZM704.66 192a1.51 1.51 0 0 1-1.23-2.39 84.29 84.29 0 0 1 7.82-9.48 1.51 1.51 0 0 1 2.19 2.09 81.41 81.41 0 0 0-7.55 9.14 1.52 1.52 0 0 1-1.23.64Zm117.47-16.31a1.55 1.55 0 0 1-1-.33 79.69 79.69 0 0 0-9.74-6.75 1.52 1.52 0 0 1-.53-2.07A1.5 1.5 0 0 1 813 166a82.25 82.25 0 0 1 10.1 7 1.51 1.51 0 0 1-1 2.68Zm-100.81-1.07a1.51 1.51 0 0 1-.92-2.71 83.83 83.83 0 0 1 10.25-6.79 1.53 1.53 0 0 1 2.06.58 1.51 1.51 0 0 1-.58 2.06 79.69 79.69 0 0 0-9.88 6.54 1.54 1.54 0 0 1-.93.29Zm80.07-11.12a1.65 1.65 0 0 1-.57-.11 78 78 0 0 0-11.29-3.59 1.51 1.51 0 0 1 .7-2.94 83.11 83.11 0 0 1 11.77 3.69 1.51 1.51 0 0 1-.56 2.92Zm-59-.64a1.51 1.51 0 0 1-.53-2.93 83.29 83.29 0 0 1 11.81-3.47 1.51 1.51 0 0 1 .63 3 78.94 78.94 0 0 0-11.38 3.34 1.39 1.39 0 0 1-.58.03Zm35.61-4.95h-.12a82.22 82.22 0 0 0-11.85-.13 1.51 1.51 0 1 1-.19-3 84 84 0 0 1 12.29.13 1.51 1.51 0 0 1-.13 3Z"/>
    <circle class="cls-6" cx="771.05" cy="237.42" r="28.67" transform="rotate(-9.2 772 237.42)"/>
    <circle class="cls-5" cx="251.91" cy="92.72" r="20.28" transform="rotate(-80.85 251.903 92.716)"/>
    <path class="cls-6" d="M218.59 99.71h26.08v26.08h-26.08z"/>
    <path class="cls-4" d="M760.33 470.64a1.51 1.51 0 0 1-1.27-2.32c12.62-19.9 32.18-37.14 52.88-55.38 26.42-23.29 53.74-47.36 71.9-80.67a1.51 1.51 0 0 1 2.65 1.45c-18.42 33.77-45.94 58-72.56 81.49-20.53 18.09-39.93 35.19-52.32 54.73a1.52 1.52 0 0 1-1.28.7Z"/>
    <path class="cls-4" d="M840.28 401.26a1.51 1.51 0 0 1-1-2.67c.52-.44 52.47-44.59 66.21-93.08a1.51 1.51 0 0 1 2.9.82c-14 49.4-66.63 94.13-67.16 94.57a1.52 1.52 0 0 1-.95.36Z"/>
    <rect class="cls-5" height="21.71" rx="4.83" width="82.44" x="686.28" y="608.62"/>
    <path class="cls-7" d="M705.83 630.37h43.36v170.68A18.21 18.21 0 0 1 731 819.21h-7a18.21 18.21 0 0 1-18.16-18.16Z"/>
    <path class="cls-8" d="M705.83 630.37h43.36v13.77h-43.36z"/>
    <path d="M715.91 659.19v141.86a8.13 8.13 0 0 0 8.08 8.07h7a8.13 8.13 0 0 0 8.08-8.07V659.19Z" style="fill-rule:evenodd;fill:#ff87ac"/>
    <rect class="cls-5" height="21.71" rx="4.83" width="82.44" x="491.71" y="608.62"/>
    <path class="cls-7" d="M511.25 630.37h43.37v170.68a18.22 18.22 0 0 1-18.17 18.16h-7a18.22 18.22 0 0 1-18.17-18.16Z"/>
    <path class="cls-8" d="M511.25 630.37h43.37v13.77h-43.37z"/>
    <path class="cls-10" d="M521.34 741.59v59.46a8.13 8.13 0 0 0 8.08 8.07h7a8.12 8.12 0 0 0 8.07-8.07v-59.46Z"/>
    <path class="cls-11" d="M463.88 713.44h17.45v132.31h-17.45zM463.88 686.54h324.94v26.9H463.88zM771.38 713.44h17.44v132.31h-17.44z"/>
    <rect class="cls-12" height="246.31" rx="4.02" width="430.79" x="71.56" y="179.66"/>
    <path class="cls-5" d="M85.45 197.48h403.01v193.38H85.45z"/>
    <path d="M242.93 425.98h88.05v50.55h-88.05z" style="fill:#0074ef"/>
    <path d="M242.93 425.98h88.05v24.04h-88.05z" style="fill:#0060d9"/>
    <path class="cls-12" d="M261.14 401.94h51.62v12.23h-51.62z"/>
    <path class="cls-15" d="M383.95 217.35h84.73v10.22h-84.73zM383.95 261.77h84.73v10.22h-84.73zM383.95 279.59h84.73v10.22h-84.73zM383.95 341.17h84.73v10.22h-84.73zM105.23 363.97h363.44v10.22H105.23z"/>
    <rect class="cls-12" height="404.05" rx="5.51" width="337.38" x="118.27" y="468.28"/>
    <rect class="cls-16" height="157.12" rx="20.19" width="295.19" x="139.36" y="495.75"/>
    <rect class="cls-16" height="157.12" rx="20.19" width="295.19" x="139.36" y="687.72"/>
    <path class="cls-5" d="M159.56 514.32h254.79a20.19 20.19 0 0 1 20.19 20.19v98.17a20.19 20.19 0 0 1-20.19 20.19H159.56a20.19 20.19 0 0 1-20.19-20.19v-98.17a20.2 20.2 0 0 1 20.19-20.19ZM159.56 706.28h254.8a20.19 20.19 0 0 1 20.19 20.19v98.18a20.19 20.19 0 0 1-20.19 20.19h-254.8a20.2 20.2 0 0 1-20.2-20.2v-98.16a20.2 20.2 0 0 1 20.2-20.2Z"/>
    <path d="M135.97 217.36h217.88v129.83H135.97z" style="fill:#c5f5ff"/>
    <path class="cls-5" d="M160.18 248.38h3.62v98.81h-3.62zM215.55 248.38h3.62v98.81h-3.62zM270.64 248.38h3.62v98.81h-3.62zM326.02 248.38h3.62v98.81h-3.62z"/>
    <path class="cls-18" d="m127.74 329.48 74.36-47.15 54 17.39 64.17-32.53 37.31-27.45 2.14 2.91c-45.28 33.33-48 33-103.3 61l-53.8-17.32-72.93 46.25Z"/>
    <path class="cls-19" d="M105.23 254.96h14.37v9.13h-14.37zM105.23 279.36h14.37v9.13h-14.37zM105.23 303.76h14.37v9.13h-14.37zM105.23 328.17h14.37v9.13h-14.37z"/>
    <path class="cls-20" d="M325.88 517.2h68.23a5.41 5.41 0 0 1 5.41 5.41v31.26a5.41 5.41 0 0 1-5.41 5.41h-68.23a5.41 5.41 0 0 1-5.41-5.41v-31.26a5.4 5.4 0 0 1 5.41-5.41Z"/>
    <rect class="cls-20" height="42.07" rx="5.41" width="79.04" x="320.48" y="589.36"/>
    <path class="cls-20" d="M325.88 709.17h68.23a5.41 5.41 0 0 1 5.41 5.41v31.26a5.41 5.41 0 0 1-5.41 5.41h-68.22a5.41 5.41 0 0 1-5.41-5.41v-31.27a5.4 5.4 0 0 1 5.4-5.4Z"/>
    <rect class="cls-20" height="42.07" rx="5.41" width="79.04" x="320.48" y="781.33"/>
    <path class="cls-19" d="M161.2 533.15h14.37v9.13H161.2zM161.2 557.55h14.37v9.13H161.2zM161.2 581.95h14.37v9.13H161.2zM161.2 606.35h14.37v9.13H161.2zM161.2 725.12h14.37v9.13H161.2zM161.2 749.52h14.37v9.13H161.2zM161.2 773.92h14.37v9.13H161.2zM161.2 798.32h14.37v9.13H161.2z"/>
    <path class="cls-15" d="M209.7 538.09h84.73v10.22H209.7zM209.7 582.51h84.73v10.22H209.7zM209.7 600.33h84.73v10.22H209.7zM209.7 730.06h84.73v10.22H209.7zM209.7 774.48h84.73v10.22H209.7zM209.7 792.29h84.73v10.22H209.7z"/>
    <path class="cls-18" d="m365.52 232.12 1.05-1.29a1.18 1.18 0 0 1 1.65-.16l79 64.74a1.17 1.17 0 0 1 .17 1.64l-1.06 1.28a1.17 1.17 0 0 1-1.64.17l-79-64.74a1.18 1.18 0 0 1-.17-1.64Z"/>
    <path class="cls-21" d="M608.14 858.64H635a38.43 38.43 0 0 0-3 20.36h-26.87a26 26 0 0 0 3.01-20.36ZM731.4 852.79l-22.17 3.62c3.24 5.08 6 13.54 3.14 19.83 7.39-1.21 16.86-5.84 24.25-7a21.68 21.68 0 0 1-5.22-16.45Z"/>
    <path class="cls-22" d="M655.33 265.52a83.44 83.44 0 0 0-.76 21.66c1 9.61 3.54 18.15 10.23 22.75-8.83.89-18.36 1.38-28.28 1.38h-3.5c-2.29-4.38-3.45-9.77-4-15.55-1.09-10.74.25-22.64 3-30.78h4.57c6.41-.06 12.7.14 18.74.54Z"/>
    <path class="cls-23" d="M658.59 302.7a21 21 0 0 0 3.59 5c.51.77 1 1.54 1.48 2.31-8.51.82-17.64 1.27-27.14 1.27h-3.5c-2.29-4.38-3.45-9.77-4-15.55a79.44 79.44 0 0 1-.31-11.14 5.1 5.1 0 0 1 3.71-2c7.17-.01 18.02 9.47 26.17 20.11Z"/>
    <path class="cls-24" d="M673.87 496.94c52.53-60.08 59.72-58.09 32.13-130.69-13.38-35.2-36.55-92.1-84.09-67.3q-1.8 53.48-3.61 106.94 27.8 45.53 55.57 91.05Z"/>
    <path d="m621.71 305-3.41 100.89 54.89 89.94c20.53-23.12 27.43-31.38 29.59-54.88 6.35-68.95-48.53-145.4-81.07-135.95Z" style="fill:#e5cdc7;fill-rule:evenodd"/>
    <path class="cls-26" d="M604.56 863.64c4.34 5 27.38 5.58 31.35 2.58 21.63-59.59 14.61-119.74 7.91-179.88-3.28-29.41-94.31-25.26-85.1 6.29 16.91 57.91 38.77 114.56 45.84 171.01Z"/>
    <path class="cls-27" d="M650.36 765c-.64-26.18-3.62-52.41-6.54-78.63-3.28-29.41-94.31-25.26-85.1 6.29 6.91 23.69 14.66 47.17 21.88 70.51a269.53 269.53 0 0 0 69.76 1.83Z"/>
    <path d="M707 857.83c5.39 3.47 22.75 1.88 26-1.48 8.05-57.44-14.19-109.35-35-161.49-9.36-23.49-83.42 8.9-64.94 26 31.2 28.8 49.46 97.14 73.94 136.97Z" style="fill:#0067dd;fill-rule:evenodd"/>
    <path d="M718.48 748.2c-6.16-17.9-13.39-35.61-20.47-53.35-9.36-23.48-83.42 8.91-64.94 26 11.07 10.22 20.5 25.43 29.17 42.57a269 269 0 0 0 56.24-15.22Z" style="fill:#004dbd;fill-rule:evenodd"/>
    <path class="cls-27" d="M583.48 877.39c23 0 39.77-5.26 43.31-5.26 6.7 0 12.13 5.16 12.13 11.54a11.37 11.37 0 0 1-5.24 9.5h-63.49a9.67 9.67 0 0 1-1-4.18c.04-6.41 6.42-11.6 14.29-11.6Z"/>
    <path class="cls-26" d="M583.48 877.39c23 0 39.77-5.26 43.31-5.26a12.62 12.62 0 0 1 5.12 1.07c-11.79 12.49-38.87 17.24-62.42 18a9.46 9.46 0 0 1-.26-2.2c0-6.42 6.38-11.61 14.25-11.61Z"/>
    <path class="cls-30" d="M572.41 896.61h59.8a2.21 2.21 0 0 0 2.2-2.2v-1.24h-64.2v1.24a2.21 2.21 0 0 0 2.2 2.2Z"/>
    <path class="cls-27" d="M693.43 877.39c1.94 0 3.83 0 5.67-.11 19.3-2.75 32.62-11.45 35.62-12 6.58-1.24 12.88 2.83 14.06 9.1a11.37 11.37 0 0 1-3.39 10.31l-28.1 8.5h-37.14a9.67 9.67 0 0 1-1-4.18c.04-6.43 6.42-11.62 14.28-11.62Z"/>
    <path class="cls-26" d="M693.43 877.39c1.94 0 3.83 0 5.67-.11 19.3-2.75 32.62-11.45 35.62-12a12.59 12.59 0 0 1 5.78.26c.9 13.81-10.6 22.5-26.47 27.65h-33.88a9.67 9.67 0 0 1-1-4.18c.04-6.43 6.42-11.62 14.28-11.62Z"/>
    <path class="cls-30" d="m717.29 896.61 27.3-8.29a2.3 2.3 0 0 0 1.75-2.57l-.23-1.22-28.82 8.58v.06h-37.12v1.24a2.21 2.21 0 0 0 2.2 2.2Z"/>
    <path class="cls-23" d="M402.59 251.42c11 5.87 36.48 24.87 30.64 34.39-4.49 7.31-12.58 6.66-19.31 2.52-2.9-1.78-7-5.58-6.79-9.48-.49-4.28 0-10.06-1.2-13.41a20.59 20.59 0 0 0-7.29-9.87c-1.32-1-4.49-2.53-3.84-4.47 1.01-2.99 5.94-.67 7.79.32Z"/>
    <path class="cls-31" d="M551.12 746.92c53.57 12.68 109.51 12.67 170.13-12.46 2.65-9.66-24.24-33.07-30.85-85.9s2.64-126.28 3.53-169.23c.74-36.45-4.39-181-62.32-180.92-24.8 0-50.33 26.71-55.81 61.52-33.23 125.99-34.39 255.84-24.68 386.99Z"/>
    <path class="cls-24" d="M551.12 746.92c32.79 7.76 66.48 10.77 101.59 6.16-2.77-12.86-19.94-39.35-19.81-86.39.14-55.31 26.86-129.7 33.21-174 3.39-23.73 27.47-104.09 15.48-153.92-6.45-26.8-28.21-48.73-58.22-39.35-22 5.08-42.7 29.59-47.57 60.55-33.23 125.95-34.39 255.8-24.68 386.95Z"/>
    <path class="cls-7" d="M586 753.21c-25.31-17.66-27.53-24.79-38.69-200.66-3.16 64.26-1 129.15 3.81 194.37a317 317 0 0 0 34.88 6.29Z"/>
    <path class="cls-31" d="M583 336.47a87.89 87.89 0 0 0-7.15 23.46q-7.29 27.65-12.59 55.54c28.82-10.27 59.13-30.05 88.63-60.53 25.58-27-3-58.88-29.93-43.78A303.67 303.67 0 0 1 583 336.47Z"/>
    <path class="cls-7" d="M564.86 482.61a128.11 128.11 0 0 0 48.14 3.47 1.21 1.21 0 0 1 .95 1.37c0 22.41-.49 44.54-3.9 65a1.17 1.17 0 0 1-1.1 1.22c-15.81 2-31.72 2.74-48.12-3.46a1.22 1.22 0 0 1-.95-1.38c-4.91-19.16-1.93-41.5 3.9-65a1.18 1.18 0 0 1 1.08-1.22Z"/>
    <path class="cls-24" d="M651.84 351.89c-90.63 65.92-188.94 28.54-228.06-57.46-1.88-5.15 6.78-13.7 11.76-13.46 21.74 21.38 62.61 35.79 109.45 35.79 29.66 0 55.39-8.14 76.92-17.81 30.77-12.67 58.51 29.24 29.93 52.94Z"/>
    <path class="cls-7" d="M624.12 301.7C598.45 313.1 572 320 543.7 320c-35.25 0-78.45-8.5-107.82-30.87 15.76 30.75 41 56.19 73.49 69 46.65 18.44 95.29 5.95 134.68-22.91 15.38-11.22-4.49-36.46-19.93-33.52Z"/>
    <path class="cls-21" d="M616.6 213c12.87 0 37.36 30.25 37.36 43.33S642.91 280 629.27 280c-17 0-22-12-23.45-26.32-1.9-18.59 3.51-40.68 10.78-40.68Z"/>
    <path class="cls-10" d="M650.72 195.28c10.79 0 19.54 7.71 19.62 17.25 3.2 5.89 5.15 13.75 5.15 22.37 0 10.25-2.75 19.41-7.08 25.49a14.71 14.71 0 0 1 .43 3.53c0 9.15-8.38 16.56-18.71 16.56s-18.71-7.41-18.71-16.56a15.28 15.28 0 0 1 3.61-9.78c3.88-4.69 0-9.66-4.3-12.67-6.79-4.71.37-21.95.37-28.82 0-9.59 8.78-17.37 19.62-17.37Z"/>
    <path class="cls-10" d="M624.27 193a36.79 36.79 0 0 1 13.07 6.55c11.69 9.24 2.69 35.22-9 42.82-3.18 2.08-7.85-5.07-14.28-10.77-7.3-6.47-12.08-3.62-17.43-14.65a19.15 19.15 0 0 1-2-11c1.6-11.19 15.08-16.95 29.64-12.95Z"/>
    <path class="cls-21" d="M633.35 238c4.83 0 6.48 4.88 6.93 9.5s-3.28 8.5-6.61 8.5a3.85 3.85 0 0 1-2.82-1.22c-.26-4.58-.94-9.33-2.43-12.46.58-2.47 1.97-4.32 4.93-4.32Z"/>
    <path class="cls-22" d="M632.54 241.46c3 0 4 3 4.25 5.84a4.83 4.83 0 0 1-3.77 5.22 8 8 0 0 0 .28-2.94c-.27-2.8-1-5.71-2.57-7.56a3 3 0 0 1 1.81-.56Z"/>
    <path class="cls-26" d="M727.6 858.66c-5.78-84.52-42.53-98.22-62.44-89.34 14.49 29.91 27 64.44 41.82 88.51 3.91 2.51 14.08 2.37 20.62.83Z"/>
    <path d="M620.69 278.73c20 0-1.59-36.57-14.24-45.89a83.14 83.14 0 0 0-.63 20.84c1.18 11.58 4.65 21.6 14.87 25.05Z" style="fill:#ffdfcc;fill-rule:evenodd"/>
  </g>
</svg>